<?xml version="1.0" encoding="UTF-8" standalone="no"?>
<!-- Created with Inkscape (http://www.inkscape.org/) -->

<svg
   xmlns:dc="http://purl.org/dc/elements/1.1/"
   xmlns:cc="http://creativecommons.org/ns#"
   xmlns:rdf="http://www.w3.org/1999/02/22-rdf-syntax-ns#"
   xmlns:svg="http://www.w3.org/2000/svg"
   xmlns="http://www.w3.org/2000/svg"
   xmlns:sodipodi="http://sodipodi.sourceforge.net/DTD/sodipodi-0.dtd"
   xmlns:inkscape="http://www.inkscape.org/namespaces/inkscape"
   width="39.989689mm"
   height="6.0096397mm"
   viewBox="0 0 39.989689 6.0096397"
   version="1.1"
   id="svg8"
   inkscape:version="0.92.3 (2405546, 2018-03-11)"
   sodipodi:docname="pratinhas.svg">
  <defs
     id="defs2" />
  <sodipodi:namedview
     id="base"
     pagecolor="#ffffff"
     bordercolor="#666666"
     borderopacity="1.0"
     inkscape:pageopacity="0.0"
     inkscape:pageshadow="2"
     inkscape:zoom="1.06"
     inkscape:cx="113.53484"
     inkscape:cy="-119.90433"
     inkscape:document-units="mm"
     inkscape:current-layer="layer1"
     showgrid="false"
     inkscape:window-width="1920"
     inkscape:window-height="1017"
     inkscape:window-x="1592"
     inkscape:window-y="50"
     inkscape:window-maximized="1"
     fit-margin-top="0"
     fit-margin-left="0"
     fit-margin-right="0"
     fit-margin-bottom="0" />
  <metadata
     id="metadata5">
    <rdf:RDF>
      <cc:Work
         rdf:about="">
        <dc:format>image/svg+xml</dc:format>
        <dc:type
           rdf:resource="http://purl.org/dc/dcmitype/StillImage" />
        <dc:title></dc:title>
      </cc:Work>
    </rdf:RDF>
  </metadata>
  <g
     inkscape:label="Layer 1"
     inkscape:groupmode="layer"
     id="layer1"
     transform="translate(-53.519914,-143.17885)">
    <g
       aria-label="PRATINHA$"
       style="font-style:normal;font-weight:normal;font-size:10.58333302px;line-height:1.25;font-family:sans-serif;letter-spacing:0px;word-spacing:0px;fill:#000000;fill-opacity:1;stroke:none;stroke-width:0.26458332"
       id="text12"
       transform="matrix(0.60408832,0,0,0.60408832,21.189159,56.68618)">
      <path
         d="m 57.086497,144.4488 q 1.026584,0 1.788584,0.33867 0.762,0.33866 1.17475,0.97366 0.41275,0.635 0.41275,1.48167 0,0.84667 -0.41275,1.48167 -0.41275,0.635 -1.17475,0.97366 -0.762,0.33867 -1.788584,0.33867 h -1.068916 v 1.82033 h -2.497667 v -7.40833 z m -0.15875,3.66183 q 0.508,0 0.762,-0.22225 0.254,-0.23283 0.254,-0.64558 0,-0.41275 -0.254,-0.635 -0.254,-0.23283 -0.762,-0.23283 h -0.910166 v 1.73566 z"
         style="font-style:normal;font-variant:normal;font-weight:normal;font-stretch:normal;font-family:'Montserrat Black';-inkscape-font-specification:'Montserrat Black, ';fill:#00d1b2;fill-opacity:1;stroke-width:0.26458332"
         id="path4528"
         inkscape:connector-curvature="0" />
      <path
         d="m 64.446379,149.99447 h -0.677333 v 1.86266 h -2.497667 v -7.40833 h 3.566583 q 1.026583,0 1.788583,0.33867 0.762,0.33866 1.17475,0.97366 0.41275,0.635 0.41275,1.48167 0,0.79375 -0.359833,1.38642 -0.359833,0.59266 -1.037167,0.94191 l 1.55575,2.286 h -2.667 z m 1.248833,-2.75167 q 0,-0.41275 -0.254,-0.635 -0.254,-0.23283 -0.762,-0.23283 h -0.910166 v 1.73566 h 0.910166 q 0.508,0 0.762,-0.22225 0.254,-0.23283 0.254,-0.64558 z"
         style="font-style:normal;font-variant:normal;font-weight:normal;font-stretch:normal;font-family:'Montserrat Black';-inkscape-font-specification:'Montserrat Black, ';fill:#00d1b2;fill-opacity:1;stroke-width:0.26458332"
         id="path4530"
         inkscape:connector-curvature="0" />
      <path
         d="M 74.195117,150.56597 H 71.37995 l -0.497416,1.29116 h -2.54 l 3.2385,-7.40833 h 2.455333 l 3.2385,7.40833 h -2.582333 z m -0.687917,-1.79917 -0.719666,-1.86267 -0.719667,1.86267 z"
         style="font-style:normal;font-variant:normal;font-weight:normal;font-stretch:normal;font-family:'Montserrat Black';-inkscape-font-specification:'Montserrat Black, ';fill:#00d1b2;fill-opacity:1;stroke-width:0.26458332"
         id="path4532"
         inkscape:connector-curvature="0" />
      <path
         d="m 78.920409,146.38555 h -2.169583 v -1.93675 h 6.836833 v 1.93675 h -2.169584 v 5.47158 h -2.497666 z"
         style="font-style:normal;font-variant:normal;font-weight:normal;font-stretch:normal;font-family:'Montserrat Black';-inkscape-font-specification:'Montserrat Black, ';fill:#00d1b2;fill-opacity:1;stroke-width:0.26458332"
         id="path4534"
         inkscape:connector-curvature="0" />
      <path
         d="m 84.236385,144.4488 h 2.497666 v 7.40833 h -2.497666 z"
         style="font-style:normal;font-variant:normal;font-weight:normal;font-stretch:normal;font-family:'Montserrat Black';-inkscape-font-specification:'Montserrat Black, ';fill:#00d1b2;fill-opacity:1;stroke-width:0.26458332"
         id="path4536"
         inkscape:connector-curvature="0" />
      <path
         d="m 95.238918,144.4488 v 7.40833 h -2.053167 l -2.815166,-3.3655 v 3.3655 h -2.434167 v -7.40833 h 2.053167 l 2.815166,3.3655 v -3.3655 z"
         style="font-style:normal;font-variant:normal;font-weight:normal;font-stretch:normal;font-family:'Montserrat Black';-inkscape-font-specification:'Montserrat Black, ';fill:#00d1b2;fill-opacity:1;stroke-width:0.26458332"
         id="path4538"
         inkscape:connector-curvature="0" />
      <path
         d="m 103.75519,144.4488 v 7.40833 h -2.49767 v -2.7305 h -2.307162 v 2.7305 h -2.497666 v -7.40833 h 2.497666 v 2.62467 h 2.307162 v -2.62467 z"
         style="font-style:normal;font-variant:normal;font-weight:normal;font-stretch:normal;font-family:'Montserrat Black';-inkscape-font-specification:'Montserrat Black, ';fill:#00d1b2;fill-opacity:1;stroke-width:0.26458332"
         id="path4540"
         inkscape:connector-curvature="0" />
      <path
         d="m 110.01722,150.56597 h -2.81517 l -0.49741,1.29116 h -2.54 l 3.2385,-7.40833 h 2.45533 l 3.2385,7.40833 h -2.58233 z m -0.68792,-1.79917 -0.71966,-1.86267 -0.71967,1.86267 z"
         style="font-style:normal;font-variant:normal;font-weight:normal;font-stretch:normal;font-family:'Montserrat Black';-inkscape-font-specification:'Montserrat Black, ';fill:#00d1b2;fill-opacity:1;stroke-width:0.26458332"
         id="path4542"
         inkscape:connector-curvature="0" />
      <path
         d="m 119.71833,149.5288 q 0,0.889 -0.64558,1.55575 -0.635,0.65617 -1.82034,0.86783 v 1.17475 h -1.49225 v -1.12183 q -0.79375,-0.0423 -1.524,-0.24342 -0.71966,-0.20108 -1.19591,-0.49741 l 0.80433,-1.82034 q 0.52917,0.30692 1.18533,0.49742 0.65617,0.17992 1.25942,0.17992 0.51858,0 0.74083,-0.0952 0.22225,-0.10584 0.22225,-0.30692 0,-0.23283 -0.29633,-0.34925 -0.28575,-0.11642 -0.9525,-0.254 -0.85725,-0.17992 -1.42875,-0.381 -0.5715,-0.21167 -0.99483,-0.67733 -0.42334,-0.47625 -0.42334,-1.28059 0,-0.93133 0.66675,-1.59808 0.67734,-0.66675 1.93675,-0.84667 v -1.15358 h 1.49225 v 1.13242 q 1.27,0.11641 2.14842,0.61383 l -0.75142,1.80975 q -1.09008,-0.55033 -2.06375,-0.55033 -0.96308,0 -0.96308,0.46566 0,0.22225 0.28575,0.33867 0.28575,0.10583 0.94192,0.23283 0.84666,0.15875 1.42875,0.37042 0.58208,0.20108 1.00541,0.66675 0.43392,0.46567 0.43392,1.27 z"
         style="fill:#27aa96;fill-opacity:1"
         id="path4544"
         inkscape:connector-curvature="0" />
    </g>
  </g>
</svg>
