<?xml version="1.0" encoding="UTF-8" standalone="no"?>
<!-- Created with Inkscape (http://www.inkscape.org/) -->

<svg
   xmlns:dc="http://purl.org/dc/elements/1.1/"
   xmlns:cc="http://creativecommons.org/ns#"
   xmlns:rdf="http://www.w3.org/1999/02/22-rdf-syntax-ns#"
   xmlns:svg="http://www.w3.org/2000/svg"
   xmlns="http://www.w3.org/2000/svg"
   xmlns:sodipodi="http://sodipodi.sourceforge.net/DTD/sodipodi-0.dtd"
   xmlns:inkscape="http://www.inkscape.org/namespaces/inkscape"
   width="39.719051mm"
   height="5.9689999mm"
   viewBox="0 0 140.7368 21.149999"
   id="svg2"
   version="1.1"
   inkscape:version="0.91pre4 r13712"
   sodipodi:docname="pratinhas.svg">
  <defs
     id="defs4" />
  <sodipodi:namedview
     id="base"
     pagecolor="#ffffff"
     bordercolor="#666666"
     borderopacity="1.0"
     inkscape:pageopacity="0.0"
     inkscape:pageshadow="2"
     inkscape:zoom="1"
     inkscape:cx="156.59537"
     inkscape:cy="118.69998"
     inkscape:document-units="px"
     inkscape:current-layer="layer1"
     showgrid="false"
     showborder="false"
     fit-margin-top="0"
     fit-margin-left="0"
     fit-margin-right="0"
     fit-margin-bottom="0"
     inkscape:window-width="1920"
     inkscape:window-height="1017"
     inkscape:window-x="-8"
     inkscape:window-y="-8"
     inkscape:window-maximized="1" />
  <metadata
     id="metadata7">
    <rdf:RDF>
      <cc:Work
         rdf:about="">
        <dc:format>image/svg+xml</dc:format>
        <dc:type
           rdf:resource="http://purl.org/dc/dcmitype/StillImage" />
        <dc:title></dc:title>
      </cc:Work>
    </rdf:RDF>
  </metadata>
  <g
     inkscape:label="Camada 1"
     inkscape:groupmode="layer"
     id="layer1"
     transform="translate(-159.2825,-629.91218)">
    <g
       style="font-style:normal;font-weight:normal;font-size:40px;line-height:125%;font-family:sans-serif;letter-spacing:0px;word-spacing:0px;fill:#000000;fill-opacity:1;stroke:none;stroke-width:1px;stroke-linecap:butt;stroke-linejoin:miter;stroke-opacity:1"
       id="text4136">
      <path
         d="m 166.865,632.61218 q 2.1825,0 3.8025,0.72 1.62,0.72 2.4975,2.07 0.8775,1.35 0.8775,3.15 0,1.8 -0.8775,3.15 -0.8775,1.35 -2.4975,2.07 -1.62,0.72 -3.8025,0.72 l -2.2725,0 0,3.87 -5.31,0 0,-15.75 7.5825,0 z m -0.3375,7.785 q 1.08,0 1.62,-0.4725 0.54,-0.495 0.54,-1.3725 0,-0.8775 -0.54,-1.35 -0.54,-0.495 -1.62,-0.495 l -1.935,0 0,3.69 1.935,0 z"
         style="font-style:normal;font-variant:normal;font-weight:900;font-stretch:normal;font-size:22.5px;font-family:'Montserrat Black';-inkscape-font-specification:'Montserrat Black,  Heavy';fill:#87deaa"
         id="path4147"
         inkscape:connector-curvature="0" />
      <path
         d="m 182.51199,644.40218 -1.44,0 0,3.96 -5.31,0 0,-15.75 7.5825,0 q 2.1825,0 3.8025,0.72 1.62,0.72 2.4975,2.07 0.8775,1.35 0.8775,3.15 0,1.6875 -0.765,2.9475 -0.765,1.26 -2.205,2.0025 l 3.3075,4.86 -5.67,0 -2.6775,-3.96 z m 2.655,-5.85 q 0,-0.8775 -0.54,-1.35 -0.54,-0.495 -1.62,-0.495 l -1.935,0 0,3.69 1.935,0 q 1.08,0 1.62,-0.4725 0.54,-0.495 0.54,-1.3725 z"
         style="font-style:normal;font-variant:normal;font-weight:900;font-stretch:normal;font-size:22.5px;font-family:'Montserrat Black';-inkscape-font-specification:'Montserrat Black,  Heavy';fill:#87deaa"
         id="path4149"
         inkscape:connector-curvature="0" />
      <path
         d="m 203.23766,645.61718 -5.985,0 -1.0575,2.745 -5.4,0 6.885,-15.75 5.22,0 6.885,15.75 -5.49,0 -1.0575,-2.745 z m -1.4625,-3.825 -1.53,-3.96 -1.53,3.96 3.06,0 z"
         style="font-style:normal;font-variant:normal;font-weight:900;font-stretch:normal;font-size:22.5px;font-family:'Montserrat Black';-inkscape-font-specification:'Montserrat Black,  Heavy';fill:#87deaa"
         id="path4151"
         inkscape:connector-curvature="0" />
      <path
         d="m 213.28355,636.72968 -4.6125,0 0,-4.1175 14.535,0 0,4.1175 -4.6125,0 0,11.6325 -5.31,0 0,-11.6325 z"
         style="font-style:normal;font-variant:normal;font-weight:900;font-stretch:normal;font-size:22.5px;font-family:'Montserrat Black';-inkscape-font-specification:'Montserrat Black,  Heavy';fill:#87deaa"
         id="path4153"
         inkscape:connector-curvature="0" />
      <path
         d="m 224.58523,632.61218 5.31,0 0,15.75 -5.31,0 0,-15.75 z"
         style="font-style:normal;font-variant:normal;font-weight:900;font-stretch:normal;font-size:22.5px;font-family:'Montserrat Black';-inkscape-font-specification:'Montserrat Black,  Heavy';fill:#87deaa"
         id="path4155"
         inkscape:connector-curvature="0" />
      <path
         d="m 247.97645,632.61218 0,15.75 -4.365,0 -5.985,-7.155 0,7.155 -5.175,0 0,-15.75 4.365,0 5.985,7.155 0,-7.155 5.175,0 z"
         style="font-style:normal;font-variant:normal;font-weight:900;font-stretch:normal;font-size:22.5px;font-family:'Montserrat Black';-inkscape-font-specification:'Montserrat Black,  Heavy';fill:#87deaa"
         id="path4157"
         inkscape:connector-curvature="0" />
      <path
         d="m 266.08191,632.61218 0,15.75 -5.31,0 0,-5.805 -4.905,0 0,5.805 -5.31,0 0,-15.75 5.31,0 0,5.58 4.905,0 0,-5.58 5.31,0 z"
         style="font-style:normal;font-variant:normal;font-weight:900;font-stretch:normal;font-size:22.5px;font-family:'Montserrat Black';-inkscape-font-specification:'Montserrat Black,  Heavy';fill:#87deaa"
         id="path4159"
         inkscape:connector-curvature="0" />
      <path
         d="m 279.39488,645.61718 -5.985,0 -1.0575,2.745 -5.4,0 6.885,-15.75 5.22,0 6.885,15.75 -5.49,0 -1.0575,-2.745 z m -1.4625,-3.825 -1.53,-3.96 -1.53,3.96 3.06,0 z"
         style="font-style:normal;font-variant:normal;font-weight:900;font-stretch:normal;font-size:22.5px;font-family:'Montserrat Black';-inkscape-font-specification:'Montserrat Black,  Heavy';fill:#87deaa"
         id="path4161"
         inkscape:connector-curvature="0" />
      <path
         d="m 300.0193,643.41218 q 0,1.89 -1.3725,3.3075 -1.35,1.395 -3.87,1.845 l 0,2.4975 -3.1725,0 0,-2.385 q -1.6875,-0.09 -3.24,-0.5175 -1.53,-0.4275 -2.5425,-1.0575 l 1.71,-3.87 q 1.125,0.6525 2.52,1.0575 1.395,0.3825 2.6775,0.3825 1.1025,0 1.575,-0.2025 0.4725,-0.225 0.4725,-0.6525 0,-0.495 -0.63,-0.7425 -0.6075,-0.2475 -2.025,-0.54 -1.8225,-0.3825 -3.0375,-0.81 -1.215,-0.45 -2.115,-1.44 -0.9,-1.0125 -0.9,-2.7225 0,-1.98 1.4175,-3.3975 1.44,-1.4175 4.1175,-1.8 l 0,-2.4525 3.1725,0 0,2.4075 q 2.7,0.2475 4.5675,1.305 l -1.5975,3.8475 q -2.3175,-1.17 -4.3875,-1.17 -2.0475,0 -2.0475,0.99 0,0.4725 0.6075,0.72 0.6075,0.225 2.0025,0.495 1.8,0.3375 3.0375,0.7875 1.2375,0.4275 2.1375,1.4175 0.9225,0.99 0.9225,2.7 z"
         style="font-style:normal;font-variant:normal;font-weight:900;font-stretch:normal;font-size:22.5px;font-family:'Montserrat Black';-inkscape-font-specification:'Montserrat Black,  Heavy';fill:#87decd"
         id="path4163"
         inkscape:connector-curvature="0" />
    </g>
  </g>
</svg>
